<svg xmlns="http://www.w3.org/2000/svg" width="6.6635938mm" height="8.4666662mm" viewBox="0 0 6.6635937 8.4666663">


  <g id="layer1" transform="translate(-49.352075,-79.480934)">
    <path id="path2" fill="#888888" d="m 52.491001,79.480934 c -0.01568,0 -0.116004,0.05016 -0.228893,0.109738 -0.109752,0.05958 -0.247734,0.15366 -0.304178,0.210105 -0.122296,0.116024 -0.10659,0.14741 0.122324,0.263435 l 0.150481,0.07524 0.02825,-0.06899 c 0.01568,-0.04076 0.03763,-0.09722 0.04704,-0.125448 0.0094,-0.02822 0.07211,-0.08152 0.144235,-0.119154 0.08153,-0.04077 0.125447,-0.08464 0.125447,-0.125402 0,-0.07839 -0.05648,-0.219521 -0.0847,-0.219521 z m 0.442947,0.07368 c -0.02901,7.84e-4 -0.04936,0.0047 -0.05406,0.01098 -0.03136,0.05644 -0.0502,0.185039 -0.02825,0.216398 0.02509,0.04077 0.329274,0.235164 0.501743,0.322966 0.137976,0.07212 0.194396,0.04703 0.194396,-0.09095 0,-0.05644 -0.0533,-0.13171 -0.178732,-0.257142 -0.153654,-0.147382 -0.206963,-0.178716 -0.329259,-0.194395 -0.0392,-0.0063 -0.07683,-0.0086 -0.105834,-0.0079 z m -0.243821,0.310472 c -0.04625,0.0047 -0.0956,0.03604 -0.18654,0.09876 -0.08153,0.05644 -0.15683,0.11287 -0.166237,0.122278 -0.02195,0.02195 0.02197,0.08467 0.181901,0.269681 l 0.116031,0.134865 0.159898,-0.05645 c 0.210099,-0.07526 0.228944,-0.103469 0.203858,-0.285346 -0.01568,-0.134839 -0.03449,-0.159929 -0.141111,-0.222645 -0.07839,-0.0439 -0.121547,-0.06584 -0.1678,-0.06114 z m -0.904682,0.242994 c -0.0063,0 -0.07836,0.05962 -0.163022,0.131741 l -0.150528,0.134818 0.07524,0.263389 c 0.04077,0.144247 0.08783,0.269704 0.109784,0.275975 0.02195,0.0094 0.115998,-0.0188 0.206936,-0.0627 0.163061,-0.07526 0.172457,-0.08469 0.238309,-0.275975 0.03449,-0.106617 0.06587,-0.213247 0.06587,-0.232062 0,-0.02509 -0.335553,-0.235185 -0.38259,-0.235185 z m 2.126086,0 c -0.01882,0 -0.100326,0.07842 -0.181857,0.169361 -0.08467,0.09407 -0.150528,0.181852 -0.150528,0.194396 0,0.03136 0.407641,0.48291 0.438996,0.48291 0.01254,0 0.06275,-0.06584 0.109786,-0.144235 l 0.08466,-0.144235 -0.05333,-0.216397 c -0.05331,-0.210099 -0.147377,-0.3418 -0.247722,-0.3418 z m -2.622042,0.255397 c -0.03916,-0.0036 -0.10098,0.0472 -0.197013,0.14598 -0.144247,0.147383 -0.147386,0.153685 -0.128571,0.297932 0.01881,0.128568 0.03135,0.147358 0.0972,0.147358 0.04077,0 0.122275,-0.02192 0.181855,-0.04387 0.109753,-0.04704 0.109784,-0.04707 0.109784,-0.250895 0,-0.197556 -0.0129,-0.291933 -0.06325,-0.296508 z m 1.780104,0.09738 c -0.04468,-0.0024 -0.0831,0.01256 -0.164629,0.04235 -0.137976,0.05017 -0.392007,0.282204 -0.392007,0.357463 0,0.05958 0.370041,0.627191 0.40767,0.627191 0.01568,0 0.163062,-0.116032 0.329259,-0.257142 l 0.30418,-0.257142 -0.02196,-0.141111 c -0.03136,-0.210098 -0.05644,-0.238302 -0.260266,-0.310426 -0.106616,-0.0392 -0.157564,-0.05883 -0.20225,-0.06118 z m 1.538073,0.274414 c -0.0094,0 -0.06267,0.05331 -0.115985,0.11603 -0.05331,0.06585 -0.09724,0.137936 -0.09724,0.163022 0,0.02195 0.06589,0.134849 0.144283,0.244602 0.169328,0.238319 0.203787,0.228928 0.257096,-0.0627 0.03449,-0.181876 0.03452,-0.185003 -0.06583,-0.319842 -0.05331,-0.07526 -0.109784,-0.137976 -0.122327,-0.141111 z m -3.89778,0.219475 c -0.01881,0 -0.07839,0.04706 -0.131694,0.100368 l -0.09407,0.10349 0.06582,0.238307 c 0.05958,0.213239 0.159966,0.382574 0.260311,0.445289 0.03763,0.02195 0.228892,-0.282212 0.228892,-0.366878 0,-0.06585 -0.285358,-0.520576 -0.329259,-0.520576 z m 0.486034,0.09407 -0.01566,0.0847 c -0.01254,0.05017 -0.0251,0.115989 -0.03137,0.150483 -0.0063,0.03449 0.02822,0.137998 0.08153,0.228936 0.05331,0.09408 0.106624,0.228887 0.116031,0.301012 0.02195,0.119158 0.03138,0.128581 0.134864,0.137987 0.09721,0.0094 0.116016,-0.0031 0.178732,-0.112861 0.03763,-0.06899 0.169309,-0.203844 0.288469,-0.301058 0.122296,-0.09721 0.219522,-0.191302 0.219522,-0.206982 0,-0.01254 -0.06587,-0.08466 -0.147405,-0.153649 L 51.870149,81.04882 h -0.335553 z m 2.994709,0.178778 c -0.01568,-0.0063 -0.200677,0.05329 -0.404502,0.134818 -0.206962,0.08153 -0.382565,0.163039 -0.388836,0.181856 -0.01254,0.0439 0.301034,0.602112 0.341799,0.602112 0.05017,0 0.718096,-0.41081 0.718096,-0.44217 0,-0.05017 -0.232065,-0.464073 -0.266557,-0.476616 z m -1.436974,0.36371 c -0.01411,8.02e-4 -0.02743,0.0032 -0.03684,0.0063 -0.01568,0.0063 -0.197562,0.05017 -0.398253,0.09407 -0.213234,0.05017 -0.370049,0.100338 -0.370049,0.119156 0,0.02195 0.06899,0.15681 0.153652,0.301052 l 0.15365,0.263392 0.257142,0.103492 c 0.141112,0.05644 0.282238,0.11287 0.313596,0.122275 0.04077,0.01254 0.116022,-0.05644 0.294763,-0.269682 0.131703,-0.156791 0.238309,-0.301025 0.238309,-0.319843 -0.0031,-0.04077 -0.492322,-0.404495 -0.564445,-0.417038 -0.01254,-0.0031 -0.02741,-0.004 -0.04153,-0.0032 z m 2.474913,0.147407 c -0.01882,0 -0.103449,0.07839 -0.184982,0.175607 -0.150516,0.169334 -0.153681,0.175615 -0.169362,0.420208 -0.01254,0.159923 -0.0063,0.250847 0.01254,0.250847 0.01882,0 0.141102,-0.05016 0.272807,-0.109735 l 0.238353,-0.106616 V 82.14638 c 0,-0.17874 -0.01255,-0.241472 -0.06899,-0.313598 -0.03763,-0.05331 -0.08469,-0.09407 -0.100366,-0.09407 z m -4.942015,0.06899 c -0.02822,-0.0031 -0.08782,0.05956 -0.147404,0.156775 l -0.0972,0.166192 0.08153,0.147401 c 0.04704,0.08467 0.100373,0.150532 0.122324,0.150532 0.01881,0 0.07835,-0.03451 0.128525,-0.07841 l 0.09407,-0.07841 -0.06895,-0.228891 c -0.04077,-0.131706 -0.08782,-0.228914 -0.112907,-0.235187 z m 0.711848,0.166191 c -0.02195,-0.0063 -0.131734,0.07524 -0.250895,0.181856 -0.116024,0.106619 -0.210104,0.206979 -0.210104,0.219522 0,0.02822 0.464129,0.5864 0.48608,0.5864 0.02822,0 0.486034,-0.542492 0.486034,-0.576984 -0.0031,-0.03449 -0.438991,-0.385708 -0.511115,-0.410794 z m 3.298838,0.206982 c -0.04076,0.0031 -0.247716,0.05643 -0.460951,0.122276 -0.213234,0.06585 -0.395139,0.125415 -0.404546,0.13482 -0.0094,0.01254 0.01569,0.134862 0.05645,0.275973 0.0784,0.272816 0.06898,0.263417 0.36688,0.351219 l 0.159948,0.05016 0.297881,-0.238308 c 0.294765,-0.235187 0.301059,-0.241473 0.301059,-0.373174 0,-0.116025 -0.01566,-0.144227 -0.122282,-0.228891 -0.06585,-0.05331 -0.153675,-0.09721 -0.194442,-0.09408 z m -4.223915,0.247727 c -0.01254,0 -0.069,0.100337 -0.125447,0.225767 l -0.100321,0.222647 0.206935,0.279097 c 0.112889,0.150519 0.219518,0.275928 0.232062,0.275928 0.03136,0 0.376296,-0.432741 0.376296,-0.47037 0,-0.03449 -0.555031,-0.533069 -0.589525,-0.533069 z m 2.075878,0.128571 c -0.01568,0 -0.200695,0.06584 -0.410794,0.144231 -0.213234,0.0784 -0.385667,0.159908 -0.385667,0.181856 0,0.02195 0.03448,0.116031 0.07524,0.210107 0.08153,0.181873 0.06273,0.169354 0.714973,0.464121 0.07839,0.03763 0.100324,0.02507 0.41704,-0.219518 0.185012,-0.141112 0.341808,-0.279097 0.351216,-0.304183 0.03449,-0.0878 -0.197544,-0.275936 -0.473494,-0.379418 -0.144247,-0.05645 -0.272837,-0.100332 -0.288515,-0.0972 z m 3.261585,0.220438 c -0.03954,-0.0043 -0.121834,0.03513 -0.31704,0.143315 l -0.260262,0.147362 v 0.241478 c 0,0.134836 0.01564,0.25398 0.03132,0.263387 0.01882,0.0094 0.166231,-0.04388 0.332428,-0.122276 l 0.301012,-0.144283 -0.02196,-0.241431 c -0.01254,-0.134842 -0.02821,-0.254003 -0.03762,-0.269682 -0.0063,-0.01019 -0.0147,-0.01645 -0.02788,-0.01787 z m -4.246194,0.438079 c -0.0094,0 -0.156803,0.05644 -0.326136,0.131696 -0.172469,0.07212 -0.31674,0.147374 -0.323012,0.16619 -0.0094,0.02509 0.370034,0.363769 0.762009,0.677352 0.06899,0.05644 0.07529,0.05015 0.379466,-0.194442 0.169333,-0.137974 0.307303,-0.2697 0.307303,-0.288513 0,-0.03136 -0.746321,-0.489146 -0.79963,-0.492283 z m 2.750103,0 c -0.49859,0 -0.51114,0.0031 -0.774547,0.106616 -0.144247,0.05644 -0.269704,0.116004 -0.275975,0.134815 -0.0094,0.0345 0.17246,0.357478 0.225768,0.388839 0.01881,0.01254 0.08781,0.02508 0.150528,0.02508 0.07212,0 0.210105,0.04704 0.351216,0.116031 l 0.232062,0.116031 0.332386,-0.297887 c 0.329257,-0.291629 0.329273,-0.294791 0.313593,-0.417084 -0.0063,-0.06899 -0.02197,-0.134852 -0.03138,-0.150533 -0.0094,-0.01254 -0.244564,-0.02505 -0.523655,-0.02191 z m -4.214545,0.12228 c -0.02195,0 -0.069,0.05646 -0.10349,0.125447 -0.07212,0.144242 -0.07525,0.13795 0.150527,0.476613 0.0784,0.119162 0.153649,0.213232 0.166192,0.213232 0.02822,0 0.185025,-0.291614 0.185025,-0.344922 0,-0.05017 -0.354352,-0.47037 -0.398254,-0.47037 z m 5.717668,0.257598 c -0.05889,-0.0014 -0.195102,0.03833 -0.502803,0.134361 -0.23832,0.07526 -0.445287,0.15367 -0.45783,0.172481 -0.01254,0.01882 -0.01258,0.08466 -0.0032,0.144236 0.01568,0.100345 0.04392,0.122297 0.279098,0.247727 l 0.257143,0.137987 0.166191,-0.257143 c 0.266542,-0.41079 0.304184,-0.479748 0.304184,-0.536194 0,-0.02704 -0.0075,-0.04265 -0.04281,-0.04345 z m 0.271704,0.200231 c -0.02196,-0.0094 -0.141088,0.169344 -0.288473,0.432749 -0.141112,0.244594 -0.254018,0.464098 -0.254018,0.482909 0,0.02509 0.06898,0.03762 0.213227,0.03762 h 0.213278 l 0.16302,-0.313593 0.166237,-0.313552 -0.08783,-0.156816 c -0.04704,-0.08467 -0.103498,-0.163048 -0.125446,-0.169317 z m -3.160856,0.188147 c -0.03449,-0.0063 -0.228935,0.04392 -0.429626,0.112906 -0.222642,0.07526 -0.370004,0.141106 -0.370004,0.166192 0,0.03763 1.006584,0.64281 1.072436,0.64281 0.03449,0 0.66163,-0.514236 0.75884,-0.62085 0.05644,-0.06585 0.05646,-0.06589 -0.01566,-0.09725 -0.04077,-0.01881 -0.272828,-0.06896 -0.514284,-0.11286 -0.241456,-0.0439 -0.467204,-0.08468 -0.501698,-0.09095 z m -2.367561,0.07841 c -0.0094,0 -0.07211,0.07208 -0.144236,0.163022 -0.06899,0.09094 -0.13795,0.178749 -0.147358,0.197566 -0.01881,0.03449 0.702396,0.671056 0.75884,0.671056 0.01568,0 0.07841,-0.07839 0.137988,-0.178731 l 0.109738,-0.175607 -0.106615,-0.222648 C 50.665982,84.297512 50.659692,84.294365 50.421371,84.17834 50.286532,84.11249 50.170513,84.062355 50.161106,84.062355 Z m 4.029523,0.385668 c -0.01568,-0.0031 -0.185015,0.03763 -0.376298,0.09407 -0.357481,0.10662 -0.388861,0.131743 -0.335552,0.272853 0.02509,0.05958 0.122327,0.115987 0.439042,0.257097 0.225776,0.09721 0.420194,0.178778 0.435874,0.178778 0.01254,-0.0031 0.172479,-0.141139 0.351219,-0.310474 0.210095,-0.197552 0.319833,-0.326114 0.310421,-0.354338 -0.01254,-0.03136 -0.128549,-0.05644 -0.404497,-0.08465 -0.213233,-0.02509 -0.401398,-0.04706 -0.420209,-0.05333 z m -4.791579,0.182449 c -0.01902,-0.0025 -0.02699,0.0089 -0.03757,0.02765 -0.01254,0.01882 -0.01254,0.109754 0,0.200692 0.02195,0.175605 0.03765,0.197582 0.370049,0.451579 0.0784,0.05958 0.106608,0.01881 0.131694,-0.18502 l 0.01883,-0.172487 -0.232062,-0.166191 C 49.493201,84.676943 49.430745,84.634577 49.39905,84.63047 Z m 2.230264,0.136795 c -0.04277,0.0018 -0.09158,0.0053 -0.154295,0.01001 -0.213235,0.01882 -0.254006,0.03453 -0.398253,0.144281 -0.0878,0.06899 -0.159898,0.147351 -0.159898,0.172437 0,0.04077 1.053596,0.655378 1.172756,0.683601 0.02195,0.0063 0.08784,-0.07524 0.144281,-0.181856 0.06272,-0.119162 0.163056,-0.241435 0.260265,-0.322969 0.181877,-0.147379 0.210099,-0.181899 0.188149,-0.216396 -0.03449,-0.05644 -0.432763,-0.213242 -0.617775,-0.244602 -0.232833,-0.03998 -0.306908,-0.04995 -0.43523,-0.04451 z m 4.242473,0.08452 c -0.03175,8.02e-4 -0.09443,0.0227 -0.226135,0.06661 -0.122294,0.03763 -0.279116,0.125471 -0.392004,0.213272 -0.244593,0.188153 -0.275944,0.225752 -0.225772,0.266518 0.04704,0.03449 0.639706,0.106605 0.693016,0.08465 0.02195,-0.0094 0.08155,-0.07212 0.137988,-0.141111 0.100349,-0.12543 0.106593,-0.16931 0.05328,-0.429583 -0.0079,-0.04076 -0.0086,-0.06114 -0.04038,-0.06036 z m -6.431901,0.36766 c -0.01254,0 -0.03134,0.0094 -0.04074,0.02196 -0.01254,0.0094 -0.02196,0.07839 -0.02196,0.153651 0,0.112888 0.01567,0.147368 0.119154,0.238307 l 0.119155,0.109786 -0.05333,0.169312 c -0.09094,0.26341 -0.08153,0.307315 0.106614,0.49233 0.137976,0.134836 0.188176,0.166176 0.310472,0.181856 0.122296,0.01567 0.153636,0.01257 0.169315,-0.03133 0.0094,-0.02822 0.02825,-0.05021 0.04079,-0.05021 0.02822,0 0.02194,0.08781 -0.0094,0.163066 -0.01254,0.02822 -0.01881,0.09721 -0.01254,0.153652 0.0094,0.0878 0.04391,0.125462 0.291639,0.297933 0.15679,0.10975 0.310417,0.19755 0.348047,0.200687 0.03763,0 0.07842,0.03133 0.100367,0.07837 0.05331,0.116025 0.20384,0.191311 0.42021,0.216397 0.128567,0.01254 0.216364,0.04077 0.260265,0.08154 0.07526,0.06898 0.39509,0.188146 0.511115,0.188146 0.0439,0 0.131713,-0.01568 0.197564,-0.03449 0.103482,-0.03136 0.131696,-0.02826 0.225769,0.03132 0.0784,0.04704 0.159945,0.06587 0.301056,0.06587 0.175604,0 0.194398,-0.0063 0.228892,-0.07841 0.02509,-0.05644 0.05331,-0.07526 0.09407,-0.05957 0.03136,0.0094 0.172484,0.0063 0.313596,-0.0063 0.232049,-0.01882 0.266519,-0.03139 0.335506,-0.109786 0.05644,-0.06271 0.109756,-0.0909 0.175608,-0.0909 0.05017,0 0.213261,-0.03136 0.35751,-0.06899 0.24773,-0.06272 0.269663,-0.07841 0.344922,-0.197568 0.0439,-0.07212 0.147398,-0.166212 0.232062,-0.219521 0.106619,-0.06272 0.17872,-0.137941 0.228892,-0.232017 0.03763,-0.07526 0.10977,-0.159957 0.159948,-0.191317 0.07839,-0.04704 0.213225,-0.313553 0.213225,-0.429579 0,-0.01882 0.112873,-0.109765 0.250847,-0.197566 0.137975,-0.09094 0.254006,-0.16618 0.257143,-0.169311 0,0 -0.01252,-0.07842 -0.0282,-0.169362 -0.04076,-0.194422 -0.09096,-0.206965 -0.181897,-0.04704 -0.03763,0.06585 -0.128541,0.159923 -0.206936,0.213233 -0.103483,0.06898 -0.147401,0.125425 -0.172487,0.213226 -0.01568,0.06272 -0.02507,0.128603 -0.01566,0.144282 0.0094,0.01568 -0.09092,0.06583 -0.225767,0.112861 -0.297902,0.106619 -0.664812,0.288492 -0.664812,0.329258 0,0.01882 -0.02824,0.03138 -0.06587,0.03138 -0.134836,0 -0.457826,0.100328 -0.658517,0.203811 l -0.203812,0.106616 -0.285346,-0.147361 -0.285346,-0.147402 -0.344968,0.01571 c -0.341803,0.01568 -0.35118,0.01881 -0.454661,0.119155 l -0.103491,0.100322 -0.131695,-0.05329 c -0.116024,-0.05017 -0.128579,-0.06898 -0.137987,-0.178731 l -0.0094,-0.125447 -0.451537,-0.185022 -0.451583,-0.188152 -0.159899,0.05646 c -0.175605,0.06271 -0.206981,0.09096 -0.206981,0.194442 0,0.04077 -0.01256,0.07211 -0.03137,0.07211 -0.01882,0 -0.03133,-0.08466 -0.03133,-0.188146 v -0.185027 l -0.413962,-0.225767 -0.417041,-0.225768 0.08778,-0.09408 c 0.04704,-0.05017 0.0847,-0.103523 0.0847,-0.119202 0,-0.02822 -0.373176,-0.310428 -0.40767,-0.310428 z m 0.950939,0.07226 c -0.05057,4.45e-4 -0.108207,0.0054 -0.182683,0.0124 -0.06899,0.0094 -0.131691,0.02824 -0.144234,0.04391 -0.0094,0.01882 0.0031,0.109742 0.0282,0.203812 0.04704,0.159928 0.05645,0.172469 0.222645,0.247727 0.09407,0.0439 0.25087,0.156822 0.351216,0.250899 0.166197,0.159923 0.185043,0.169292 0.297932,0.15048 0.159925,-0.02509 0.200688,-0.05955 0.200688,-0.172442 0,-0.06271 0.03135,-0.125418 0.0972,-0.19127 0.06585,-0.06585 0.09093,-0.109764 0.07212,-0.137986 -0.01568,-0.02195 -0.200682,-0.125457 -0.413917,-0.228939 -0.289277,-0.141111 -0.377472,-0.179919 -0.529166,-0.178593 z m 3.3055,0.03004 c -0.125824,-0.0075 -0.269281,0.0012 -0.477812,0.02315 -0.17874,0.02195 -0.266519,0.05328 -0.476618,0.172436 -0.14111,0.07839 -0.272823,0.166197 -0.291638,0.188146 -0.0439,0.05331 0.0094,0.08468 0.235185,0.137993 0.09407,0.02195 0.260287,0.106619 0.40767,0.210102 l 0.250849,0.169316 0.235185,-0.06583 c 0.21637,-0.06272 0.253994,-0.08783 0.495451,-0.323015 0.141111,-0.137973 0.257144,-0.275955 0.257144,-0.304177 0,-0.03763 -0.07211,-0.07524 -0.263393,-0.134816 -0.137974,-0.04233 -0.246199,-0.06586 -0.372023,-0.07331 z m 1.435042,0.305374 c -0.137974,0.0031 -0.238319,0.02506 -0.376293,0.08778 -0.357481,0.166198 -0.520538,0.260254 -0.507995,0.297883 0.0063,0.02195 0.06269,0.06587 0.125406,0.100372 0.06272,0.03449 0.131709,0.100366 0.150526,0.147402 0.06585,0.163059 0.100346,0.166172 0.376294,0.05328 0.228918,-0.09721 0.275968,-0.128578 0.454709,-0.338678 0.109751,-0.128569 0.200687,-0.250865 0.200687,-0.269683 0,-0.04703 -0.169335,-0.07836 -0.423334,-0.07836 z m -3.189101,0.253973 c -0.0063,0 -0.100364,0.0251 -0.206982,0.05645 -0.153654,0.03763 -0.210074,0.06899 -0.241432,0.128572 -0.103481,0.200695 -0.109761,0.191305 0.319843,0.42963 l 0.401377,0.222596 0.260265,-0.04074 c 0.144247,-0.02509 0.279105,-0.05643 0.301055,-0.07525 0.08467,-0.07212 0.279071,-0.382582 0.250849,-0.407668 -0.02509,-0.02195 -1.059889,-0.319868 -1.084975,-0.313593 z m 2.072757,0.313593 c -0.04077,0.0031 -0.16618,0.01569 -0.275933,0.03137 -0.144246,0.01881 -0.260293,0.05956 -0.429626,0.156776 -0.128568,0.07526 -0.232062,0.147374 -0.232062,0.166192 0,0.01881 0.119189,0.103489 0.263435,0.185021 l 0.266513,0.150527 0.392007,-0.222642 c 0.216369,-0.1223 0.401382,-0.235218 0.410794,-0.250898 0.02509,-0.03763 -0.307328,-0.219489 -0.395128,-0.216351 z" style="display:inline;stroke-width:0.00313581"/>
  </g>
</svg>